<?xml version="1.0" encoding="utf-8"?>
<!-- Generated by IcoMoon.io -->
<!DOCTYPE svg PUBLIC "-//W3C//DTD SVG 1.1//EN" "http://www.w3.org/Graphics/SVG/1.1/DTD/svg11.dtd">
<svg version="1.1" xmlns="http://www.w3.org/2000/svg" xmlns:xlink="http://www.w3.org/1999/xlink" width="2578" height="1024" viewBox="0 0 2578 1024"><g id="icomoon-ignore">
</g>
<path fill="rgb(255, 255, 255)" d="M337.19 237.742c51.278 0 90.124 4.662 127.417 12.431 10.877 1.554 15.539-1.554 17.093-12.431 10.877-93.232-29.524-124.31-73.032-124.31-158.495 0-315.436 144.51-315.436 290.574 0 163.156 299.897 119.648 299.897 236.188 0 46.616-85.463 85.463-197.341 85.463-37.293 0-85.463-1.554-135.187-13.985-10.877-3.108-12.431 3.108-10.877 12.431 26.416 119.648 96.34 149.171 192.68 114.986 146.064-51.278 219.096-142.956 219.096-240.85 0-180.249-273.481-212.88-273.481-281.25 0-54.385 71.478-79.247 149.171-79.247z"></path>
<path fill="rgb(244, 151, 18)" d="M947.86 214.434c0 0 66.816-101.002 121.202-111.879 20.2-3.108 38.847 3.108 38.847 3.108s7.769 12.431 6.215 37.293c-3.108 55.939-133.633 122.756-136.741 122.756-24.862 6.215-23.308-31.077-29.524-51.278z"></path>
<path fill="rgb(244, 151, 18)" d="M778.489 175.587c0 0-7.769-87.017 27.97-111.879 12.431-9.323 31.077-10.877 31.077-10.877s12.431 4.662 26.416 21.754c29.524 37.293-31.077 122.756-32.631 122.756-18.646 12.431-37.293-10.877-52.832-21.754z"></path>
<path fill="rgb(244, 151, 18)" d="M635.533 222.203c0 0-52.832-54.385-49.724-90.124 1.554-12.431 9.323-23.308 9.323-23.308s9.323-3.108 24.862 1.554c34.185 9.323 54.385 99.448 54.385 101.002-3.108 17.093-26.416 10.877-38.847 10.877z"></path>
<path fill="rgb(244, 151, 18)" d="M596.686 773.827c0 0-49.724 43.508-43.508 76.14 1.554 12.431 10.877 21.754 10.877 21.754s9.323 3.108 24.862 1.554c34.185-4.662 46.616-83.909 46.616-85.463-1.554-15.539-24.862-12.431-38.847-13.985z"></path>
<path fill="rgb(244, 151, 18)" d="M495.684 309.22c0 0-59.047-48.17-94.786-34.185-12.431 4.662-23.308 17.093-23.308 17.093s-3.108 12.431 3.108 29.524c12.431 40.401 104.109 37.293 105.663 35.739 17.093-6.215 9.323-31.077 9.323-48.17z"></path>
<path fill="rgb(244, 151, 18)" d="M960.291 585.809c0 0 71.478 7.769 91.678 35.739 7.769 10.877 7.769 23.308 7.769 23.308s-4.662 7.769-18.646 13.985c-31.077 15.539-101.002-38.847-101.002-40.401-9.323-13.985 10.877-23.308 20.2-32.631z"></path>
<path fill="rgb(149, 193, 31)" d="M2318.373 727.211c-37.293 0-69.924-10.877-96.34-31.077-1.554 0-3.108 0-4.662 0-54.385-3.108-107.217-6.215-156.941-7.769-34.185 26.416-76.14 41.954-121.202 41.954-29.524 0-69.924-7.769-102.555-40.401-45.062 1.554-91.678 4.662-136.741 9.323-34.185 18.646-74.586 31.077-114.986 31.077-21.754 0-40.401-3.108-59.047-9.323-48.17 7.769-97.894 15.539-149.171 24.862-108.771 21.754-219.096 46.616-326.313 82.355-6.215 6.215-26.416 21.754-55.939 21.754-3.108 0-4.662 0-7.769 0-20.2 7.769-38.847 15.539-59.047 23.308-24.862 9.323-48.17 21.754-71.478 34.185-1.554 3.108-1.554 6.215-3.108 7.769-10.877 20.2-24.862 27.97-27.97 29.524s-4.662 1.554-7.769 1.554c0 0-1.554 0-1.554 0-1.554 0-7.769-1.554-17.093-4.662-3.108 3.108-7.769 4.662-9.323 9.323-1.554 3.108-3.108 9.323-4.662 12.431 0 0 0 0 0 0s0 0 0 0c0 1.554 0 1.554 0 1.554v4.662l1.554 1.554 10.877-7.769c12.431-6.215 24.862-10.877 38.847-17.093 68.37-27.97 135.187-41.954 198.895-57.493 259.496-63.709 461.499-85.463 536.085-94.786l27.97-9.323c-73.032 1.554-259.496 27.97-414.883 60.601 4.662-1.554-97.894 17.093-156.941 29.524 163.156-46.616 365.159-85.463 585.809-108.771 0 0 0 0 1.554 0-3.108 1.554-3.108 3.108 0 3.108 3.108 1.554 55.939-3.108 79.247-3.108 293.681-35.739 596.686-12.431 643.302-10.877 31.077 1.554 66.816 3.108 104.109 4.662l27.97 1.554c9.323 0 17.093-15.539 1.554-20.2l-24.862-7.769c-18.646-4.662-38.847-10.877-57.493-13.985-1.554 0-3.108 0-6.215-1.554-15.539 4.662-32.631 7.769-51.278 9.323-6.215 0-9.323 0-12.431 0z"></path>
<path fill="rgb(244, 151, 18)" d="M977.384 719.442c0 0-32.631-18.646-59.047-18.646-10.877 0-21.754 3.108-27.97 12.431-15.539 21.754 13.985 51.278 37.293 79.247 24.862 29.524 48.17 37.293 66.816 37.293 27.97 0 45.062-18.646 45.062-18.646-10.877-6.215-40.401-73.032-62.155-91.678z"></path>
<path fill="rgb(244, 151, 18)" d="M787.812 767.612c-12.431 0-23.308 17.093-32.631 26.416 0 0 3.108 93.232 35.739 119.648 12.431 10.877 27.97 12.431 27.97 12.431s10.877-4.662 20.2-21.754c21.754-38.847-40.401-132.079-41.954-133.633-3.108-1.554-6.215-3.108-9.323-3.108z"></path>
<path fill="rgb(244, 151, 18)" d="M727.211 251.727l-6.215 9.323c10.877 6.215 40.401 21.754 62.155 48.17-35.739-18.646-144.51-63.709-239.296 34.185-57.493 59.047-73.032 219.096 15.539 327.866 48.17 59.047 172.48 135.187 296.789 7.769s114.986-307.666 54.385-382.252c-60.601-71.478-183.357-45.062-183.357-45.062zM745.857 633.979c-41.954 29.524-97.894 34.185-128.971-21.754-37.293-65.263-9.323-166.264 48.17-205.111 49.724-34.185 125.863-49.724 153.833 1.554 40.401 71.478-18.646 188.018-73.032 225.311z"></path>
<path fill="rgb(255, 255, 255)" d="M1250.865 467.715c0 141.402-114.986 247.065-121.202 73.032-4.662-101.002 57.493-198.895 124.31-184.91-1.554 35.739-3.108 101.002-3.108 111.879zM1292.819 133.633c-17.093 34.185-27.97 96.34-34.185 166.264-119.648-24.862-242.404 77.693-242.404 242.404 0 12.431 0 23.308 1.554 34.185 6.215 1.554 13.985 4.662 20.2 7.769 10.877 6.215 21.754 12.431 31.077 24.862 10.877 17.093 10.877 32.631 12.431 34.185 0 4.662-1.554 9.323-3.108 12.431s-7.769 10.877-20.2 18.646c21.754 24.862 51.278 40.401 90.124 40.401 51.278 0 91.678-45.062 114.986-102.555 12.431 62.155 31.077 102.555 93.232 102.555 20.2 0 38.847-9.323 51.278-17.093 4.662-3.108 6.215-9.323 3.108-13.985-63.709-76.14-54.385-431.976 9.323-576.486 20.2-48.17-110.325-9.323-127.417 26.416z"></path>
<path fill="rgb(255, 255, 255)" d="M2030.907 298.343c-49.724 0-101.002 31.077-124.31 85.463 7.769-41.954 13.985-184.91 6.215-228.419-6.215-29.524-68.37-62.155-101.002-62.155-13.985 0-21.754 4.662-18.646 18.646 13.985 62.155 1.554 261.050 1.554 377.59 0 166.264 65.263 223.757 144.51 223.757 111.879 0 205.111-105.663 205.111-262.604 0-107.217-54.385-152.279-113.432-152.279zM1954.768 658.841c-21.754 0-46.616-27.97-46.616-104.109 0-105.663 46.616-175.587 83.909-175.587 23.308 0 43.508 35.739 43.508 99.448-1.554 114.986-35.739 180.249-80.801 180.249z"></path>
<path fill="rgb(255, 255, 255)" d="M2383.636 303.005c-3.108 0-6.215 0-9.323 0-237.742 12.431-271.927 407.114-55.939 407.114 3.108 0 6.215 0 9.323 0 240.85-12.431 271.927-407.114 55.939-407.114zM2335.466 655.733c0 0 0 0 0 0-74.586 0-57.493-295.235 18.646-298.343 0 0 1.554 0 1.554 0 77.693 0 73.032 293.681-20.2 298.343z"></path>
<path fill="rgb(255, 255, 255)" d="M1748.103 559.393c-1.554 0-3.108 1.554-6.215 3.108-37.293 48.17-83.909 76.14-122.756 76.14-31.077 0-55.939-18.646-62.155-57.493 80.801-20.2 177.141-85.463 177.141-178.695 0-55.939-34.185-101.002-102.555-101.002-114.986 0-209.772 121.202-195.788 259.496 10.877 113.432 79.247 153.833 149.171 153.833 73.032 0 149.171-41.954 172.48-93.232 7.769-24.862 4.662-41.954-4.662-55.939-1.554-6.215-3.108-6.215-4.662-6.215zM1612.917 344.959c40.401 0 15.539 166.264-65.263 194.234-4.662-79.247 34.185-194.234 65.263-194.234z"></path>
</svg>
